<svg xmlns="http://www.w3.org/2000/svg" xmlns:xlink="http://www.w3.org/1999/xlink" xml:space="preserve" style="shape-rendering:geometricPrecision;text-rendering:geometricPrecision;image-rendering:optimizeQuality;" viewBox="0 0 6.82666 8.533325000000001" version="1.1" x="0px" y="0px" fill-rule="evenodd" clip-rule="evenodd"><defs><style type="text/css">
   
    .fil1 {fill:none}
    .fil0 {fill:black}
   
  </style></defs><g><g><path class="fil0" d="M4.25736 1.73491c-0.0387598,0 -0.0701614,-0.0312992 -0.0701614,-0.0701575l3.93701e-006 -0.798161c0,-0.167354 0.136083,-0.303406 0.303378,-0.303406l0.310484 0c0.0387441,0 0.0701575,0.0314252 0.0701575,0.0701575 0,0.0387323 -0.0314134,0.0701575 -0.0701575,0.0701575l-0.31048 0c-0.0899252,0 -0.163083,0.0732008 -0.163083,0.163094l0 0.798157c0,0.0388583 -0.0314016,0.0701575 -0.0701417,0.0701575z"/><path class="fil0" d="M1.81171 0.489984c-0.0790827,0 -0.143433,0.064315 -0.143433,0.143362 3.93701e-006,0.0790472 0.0643465,0.143484 0.143433,0.143484 0.0790827,-3.93701e-006 0.143421,-0.064437 0.143421,-0.143484 0,-0.0790512 -0.0643386,-0.143362 -0.143421,-0.143362zm0 0.427157c-0.156465,0 -0.28374,-0.127283 -0.28374,-0.283795 7.87402e-006,-0.156394 0.127272,-0.283677 0.28374,-0.283677 0.156457,0 0.283736,0.127283 0.283736,0.283677 0,0.156512 -0.127287,0.283799 -0.283736,0.283795z"/><path class="fil0" d="M5.01465 0.489984c-0.0790787,0 -0.143425,0.064315 -0.143425,0.143362 0,0.0790472 0.0643465,0.143484 0.143421,0.143484 0.0791063,-3.93701e-006 0.143433,-0.064437 0.143433,-0.143484 3.93701e-006,-0.0790512 -0.0643346,-0.143362 -0.143429,-0.143362zm0 0.427157c-0.156457,0 -0.28374,-0.127283 -0.28374,-0.283795 0,-0.156394 0.127283,-0.283677 0.283736,-0.283677 0.156469,0 0.283713,0.127283 0.283713,0.283677 3.93701e-006,0.156512 -0.127248,0.283799 -0.283709,0.283795z"/><path class="fil0" d="M3.41304 0.489984c-0.0790866,0 -0.143437,0.064315 -0.143437,0.143362 3.93701e-006,0.0790472 0.0643465,0.143484 0.143437,0.143484 0.0790748,-3.93701e-006 0.143421,-0.064437 0.143421,-0.143484 3.93701e-006,-0.0790512 -0.0643465,-0.143362 -0.143421,-0.143362zm0 0.427157c-0.156465,0 -0.283752,-0.127283 -0.283752,-0.283795 3.93701e-006,-0.156394 0.127287,-0.283677 0.283752,-0.283677 0.156457,0 0.283736,0.127283 0.283736,0.283677 3.93701e-006,0.156512 -0.127283,0.283799 -0.283736,0.283795z"/><path class="fil0" d="M2.56915 1.73467c-0.0387559,0 -0.0701614,-0.0314213 -0.0701614,-0.0701535l3.93701e-006 -0.797921c0,-0.0898898 -0.0732165,-0.163091 -0.163201,-0.163091l-0.310496 0c-0.038748,0 -0.0701575,-0.0314252 -0.0701575,-0.0701575 0,-0.0387362 0.0314094,-0.0701575 0.0701575,-0.0701575l0.310496 0c0.167354,0 0.3035,0.136051 0.3035,0.303409l0 0.797913c0,0.0387362 -0.0314016,0.0701614 -0.0701417,0.0701575z"/><path class="fil0" d="M3.41304 1.54222c-0.0387441,0 -0.0701575,-0.0314252 -0.0701575,-0.0701575l0 -0.624961c0,-0.0387283 0.0314094,-0.0701575 0.0701575,-0.0701575 0.0387441,0 0.0701457,0.0314291 0.0701457,0.0701575l3.93701e-006 0.624961c0,0.0387323 -0.0314055,0.0701575 -0.0701496,0.0701575z"/><path class="fil0" d="M0.866587 2.63941c-0.16728,0 -0.303374,-0.136051 -0.303374,-0.303406l7.87402e-006 -0.310472c0,-0.0387323 0.0314016,-0.0701575 0.0701496,-0.0701575 0.038752,0 0.0701575,0.0314252 0.0701575,0.0701575l7.87402e-006 0.310472c0,0.0900079 0.0731339,0.163091 0.163047,0.163091l0.798224 0c0.0387559,0 0.0701535,0.0314252 0.0701535,0.0701575 1.9685e-005,0.0387362 -0.0313976,0.0701575 -0.0701575,0.0701575l-0.798217 0z"/><path class="fil0" d="M0.633378 4.87154c-0.0790945,0 -0.143441,0.0643071 -0.143441,0.143358 7.87402e-006,0.0791693 0.0643465,0.14348 0.143433,0.14348 0.0790906,0 0.143433,-0.064311 0.143433,-0.14348 3.93701e-006,-0.0790512 -0.0643465,-0.143358 -0.143425,-0.143358zm0 0.427154c-0.156457,0 -0.283744,-0.12728 -0.283744,-0.283795 0,-0.156394 0.127283,-0.283673 0.283736,-0.283673 0.156457,-3.93701e-006 0.283736,0.127283 0.283736,0.283673 3.93701e-006,0.156516 -0.12728,0.283795 -0.283728,0.283795z"/><path class="fil0" d="M0.633378 1.66853c-0.0790945,0 -0.143441,0.064315 -0.143441,0.143484 7.87402e-006,0.0790512 0.0643465,0.143358 0.143433,0.143358 0.0790906,0 0.143433,-0.0643071 0.143433,-0.143358 3.93701e-006,-0.0791732 -0.0643465,-0.14348 -0.143425,-0.143484zm0 0.427157c-0.156457,0 -0.283744,-0.12728 -0.283744,-0.283673 0,-0.156516 0.127283,-0.283795 0.283736,-0.283795 0.156457,-3.93701e-006 0.283736,0.12728 0.283736,0.283795 3.93701e-006,0.156394 -0.12728,0.283673 -0.283728,0.283673z"/><path class="fil0" d="M0.633378 3.27022c-0.0790945,0 -0.143441,0.064311 -0.143441,0.143358 7.87402e-006,0.0790472 0.0643465,0.14348 0.143433,0.14348 0.0790906,0 0.143433,-0.0644331 0.143433,-0.14348 3.93701e-006,-0.0790512 -0.0643465,-0.143358 -0.143425,-0.143358zm0 0.427154c-0.156457,0 -0.283744,-0.12728 -0.283744,-0.283795 0,-0.156394 0.127283,-0.283673 0.283736,-0.283673 0.156457,-3.93701e-006 0.283736,0.12728 0.283736,0.283673 3.93701e-006,0.156516 -0.12728,0.283795 -0.283728,0.283795z"/><path class="fil0" d="M0.633378 4.87154c-0.0387559,0 -0.0701654,-0.0314213 -0.0701654,-0.0701575l7.87402e-006 -0.310594c0,-0.167358 0.136079,-0.303406 0.303362,-0.303406l0.797957 0c0.0387441,0 0.0701417,0.0313031 0.0701417,0.0701575 0,0.0387283 -0.0313976,0.0701575 -0.0701417,0.0701575l-0.797953 0c-0.0899173,0 -0.163059,0.0732047 -0.163059,0.163091l7.87402e-006 0.310594c0,0.0387362 -0.0314213,0.0701575 -0.0701575,0.0701575z"/><path class="fil0" d="M1.47212 3.48374l-0.625028 0c-0.0387441,0 -0.0701575,-0.0314252 -0.0701575,-0.0701575 0,-0.0387323 0.0314134,-0.0701575 0.0701575,-0.0701575l0.625028 -3.93701e-006c0.0387441,0 0.0701417,0.0314291 0.0701417,0.0701614 0,0.0387323 -0.0314016,0.0701575 -0.0701417,0.0701575z"/><path class="fil0" d="M2.33607 6.26336l-0.310496 0c-0.038748,0 -0.0701575,-0.0313031 -0.0701575,-0.0701575 0,-0.0387283 0.0314094,-0.0701575 0.0701575,-0.0701575l0.310496 0c0.0899134,0 0.163067,-0.0730787 0.163067,-0.162965l0 -0.798287c0,-0.0387323 0.0313976,-0.0701575 0.0701417,-0.0701575 0.038752,0 0.0701575,0.0314252 0.0701575,0.0701575l7.87402e-006 0.798287c0,0.167228 -0.136094,0.30328 -0.303374,0.30328z"/><path class="fil0" d="M5.01493 6.04984c-0.0790827,0 -0.143433,0.064311 -0.143433,0.143358 0,0.0791693 0.0643465,0.143484 0.143429,0.143484 0.0790906,0 0.143433,-0.064315 0.143433,-0.143484 3.93701e-006,-0.0790472 -0.0643465,-0.143358 -0.143429,-0.143358zm0 0.427154c-0.156457,0 -0.28374,-0.12728 -0.28374,-0.283795 0,-0.15639 0.127283,-0.283673 0.283736,-0.283673 0.156472,0 0.283799,0.127283 0.283799,0.283673 0,0.156516 -0.127331,0.283795 -0.283795,0.283795z"/><path class="fil0" d="M1.81198 6.04984c-0.0790709,0 -0.143421,0.064311 -0.143421,0.143358 3.93701e-006,0.0791693 0.0643465,0.143484 0.143417,0.143484 0.0791024,0 0.143437,-0.064315 0.143437,-0.143484 0,-0.0790472 -0.0643386,-0.143358 -0.143433,-0.143358zm0 0.427154c-0.156449,0 -0.283724,-0.12728 -0.283724,-0.283795 3.93701e-006,-0.15639 0.127268,-0.283673 0.28372,-0.283673 0.156472,0 0.283752,0.127283 0.283752,0.283673 0,0.156516 -0.127287,0.283795 -0.283748,0.283795z"/><path class="fil0" d="M3.4136 6.04984c-0.0790945,0 -0.143433,0.064311 -0.143433,0.143358 0,0.0791693 0.0643346,0.143484 0.143433,0.143484 0.0790748,0 0.143421,-0.064315 0.143421,-0.143484 0,-0.0790472 -0.0643465,-0.143358 -0.143421,-0.143358zm0 0.427154c-0.156461,0 -0.283748,-0.12728 -0.283748,-0.283795 0,-0.15639 0.127283,-0.283673 0.283748,-0.283673 0.156461,0 0.283736,0.127283 0.283736,0.283673 3.93701e-006,0.156516 -0.127283,0.283795 -0.283736,0.283795z"/><path class="fil0" d="M4.80134 6.26336l-0.310492 0c-0.167358,0 -0.303504,-0.136051 -0.303504,-0.30328l0 -0.797921c0,-0.0388583 0.0313976,-0.0701575 0.0701417,-0.0701575 0.038748,0 0.0701575,0.0312992 0.0701575,0.0701575l7.87402e-006 0.797921c0,0.0898858 0.0732087,0.162965 0.163193,0.162965l0.310496 0c0.038748,0 0.0701496,0.0314291 0.0701496,0.0701575 0,0.0388543 -0.0314016,0.0701575 -0.0701496,0.0701575z"/><path class="fil0" d="M3.4136 6.04972c-0.0387559,0 -0.0701575,-0.0314252 -0.0701575,-0.0701575l0 -0.625083c0,-0.0387323 0.0313976,-0.0701535 0.0701575,-0.0701535 0.038748,-3.93701e-006 0.0701457,0.0314213 0.0701457,0.0701535l0 0.625079c0,0.0387362 -0.0313976,0.0701614 -0.0701457,0.0701614z"/><path class="fil0" d="M6.19323 4.87117c-0.0387283,0 -0.0701614,-0.0313031 -0.0701614,-0.0701575l3.93701e-006 -0.310476c0,-0.0898858 -0.0730827,-0.163087 -0.162972,-0.163087l-0.79828 0c-0.038748,0 -0.0701496,-0.0313071 -0.0701496,-0.0701575 -7.87402e-006,-0.0387323 0.0314016,-0.0700354 0.0701457,-0.0700354l0.798287 -0.000122047c0.167232,0 0.30328,0.136173 0.30328,0.303406l3.93701e-006 0.310469c0,0.0388583 -0.0314291,0.0701614 -0.0701575,0.0701614z"/><path class="fil0" d="M6.19323 1.66829c-0.0790512,0 -0.143362,0.064315 -0.143362,0.143362 0,0.0791693 0.0643071,0.143484 0.143358,0.143484 0.0791732,-3.93701e-006 0.143484,-0.064315 0.143484,-0.143484 3.93701e-006,-0.0790472 -0.064311,-0.143362 -0.14348,-0.143362zm0 0.427157c-0.156394,0 -0.283677,-0.12728 -0.283677,-0.283795 0,-0.156394 0.12728,-0.283677 0.283673,-0.283677 0.156516,0 0.283799,0.127287 0.283799,0.283677 0,0.156512 -0.127283,0.283799 -0.283795,0.283795z"/><path class="fil0" d="M6.19323 4.87117c-0.0790512,0 -0.143362,0.0644331 -0.143362,0.14348 0,0.0790472 0.0643071,0.14348 0.143358,0.14348 0.0791732,0 0.143484,-0.0644331 0.143484,-0.14348 3.93701e-006,-0.0790472 -0.064311,-0.14348 -0.14348,-0.14348zm0 0.427154c-0.156394,0 -0.283677,-0.12728 -0.283677,-0.283673 0,-0.156516 0.12728,-0.283795 0.283673,-0.283795 0.156516,-3.93701e-006 0.283799,0.127283 0.283799,0.283795 0,0.156394 -0.127283,0.283673 -0.283795,0.283673z"/><path class="fil0" d="M6.19323 3.26961c-0.0790512,0 -0.143362,0.064315 -0.143362,0.143484 0,0.0790512 0.0643071,0.143362 0.143358,0.143362 0.0791732,0 0.143484,-0.064311 0.143484,-0.143362 3.93701e-006,-0.0791693 -0.064311,-0.143484 -0.14348,-0.143484zm0 0.427161c-0.156394,0 -0.283677,-0.12728 -0.283677,-0.283677 0,-0.156512 0.12728,-0.283799 0.283673,-0.283799 0.156516,0 0.283799,0.127287 0.283799,0.283799 0,0.156394 -0.127283,0.283677 -0.283795,0.283677z"/><path class="fil0" d="M5.9601 2.63929l-0.798 0c-0.038752,0 -0.0701535,-0.0314213 -0.0701535,-0.0701575 3.93701e-006,-0.0387283 0.0314016,-0.0701575 0.0701457,-0.0701575l0.798008 0c0.0898898,0 0.162965,-0.0732008 0.162965,-0.163213l3.93701e-006 -0.310472c0,-0.0387323 0.0314252,-0.0701535 0.0701535,-0.0701535 0.0387362,-3.93701e-006 0.0701575,0.0314252 0.0701575,0.0701575l3.93701e-006 0.310465c0,0.167358 -0.136051,0.303531 -0.303283,0.303531z"/><path class="fil0" d="M5.97959 3.48325l-0.625083 0c-0.0387323,0 -0.0701614,-0.0314213 -0.0701614,-0.0701575 3.93701e-006,-0.0388543 0.0314252,-0.0701575 0.0701575,-0.0701575l0.625087 0c0.0387323,0 0.0701535,0.0313031 0.0701535,0.0701575 3.93701e-006,0.0387323 -0.0314252,0.0701575 -0.0701535,0.0701575z"/><path class="fil0" d="M3.41332 1.5421c-1.03177,0 -1.87119,0.839453 -1.87119,1.87123 0,1.03178 0.839409,1.87111 1.87119,1.87111 1.03177,0 1.87114,-0.839335 1.87114,-1.87111 7.87402e-006,-1.03178 -0.839378,-1.87123 -1.87114,-1.87123zm0 3.88266c-1.10915,0 -2.0115,-0.902303 -2.0115,-2.01143 0,-1.10912 0.902354,-2.01154 2.0115,-2.01154 1.10913,-3.93701e-006 2.01146,0.902425 2.01146,2.01154 7.87402e-006,1.10912 -0.902323,2.01143 -2.01146,2.01143z"/><path class="fil0" d="M4.06884 2.67218c-0.0482283,0 -0.0874724,0.0392205 -0.0874724,0.0874528 0,0.0482283 0.0392441,0.0874528 0.0874685,0.0874528 0.0482205,-3.93701e-006 0.0874488,-0.0392205 0.0874488,-0.0874528 3.93701e-006,-0.0482323 -0.0392323,-0.0874528 -0.0874449,-0.0874528zm0 0.31522c-0.12561,0 -0.227776,-0.102193 -0.227776,-0.227768 0,-0.125583 0.102165,-0.227768 0.227772,-0.227768 0.125587,0 0.227764,0.102189 0.227764,0.227768 3.93701e-006,0.125575 -0.102181,0.227768 -0.22776,0.227768z"/><path class="fil0" d="M3.45376 3.11334l0.000114173 0 -0.000114173 0zm0.0129646 -0.0130354l0.261484 0.261508 0.0507047 -0.0507874c0.0184646,-0.0183937 0.0456732,-0.0250906 0.0705945,-0.0172992 0.17185,0.0538386 0.357622,0.00840551 0.484807,-0.118878 0.0909252,-0.0908622 0.140996,-0.211685 0.140996,-0.340311 3.93701e-006,-0.128504 -0.0500709,-0.249327 -0.140996,-0.340311 -0.0909213,-0.0908661 -0.211791,-0.140925 -0.340315,-0.140925 -0.128531,-3.93701e-006 -0.249386,0.050063 -0.340311,0.140925 -0.127169,0.127157 -0.172705,0.312906 -0.118843,0.48465 0.00781496,0.0249646 0.00113386,0.052252 -0.0173425,0.0706417l-0.0507795 0.0507874zm0.261476 0.409378c-0.0311929,0 -0.0623937,-0.011815 -0.0861575,-0.0355669l-0.287374 -0.287453c-0.047626,-0.047626 -0.047685,-0.124965 -0.000145669,-0.172591 0,-3.93701e-006 0,0 7.87402e-006,0l0.0348976 -0.0348346c-0.0502677,-0.20974 0.0110591,-0.430201 0.165039,-0.584154 0.117433,-0.117421 0.273516,-0.182098 0.439531,-0.182098 0.166004,0 0.322102,0.0646772 0.439531,0.182098 0.117433,0.117409 0.182094,0.273441 0.182094,0.439453 3.93701e-006,0.166016 -0.0646654,0.322165 -0.182094,0.439583 -0.15398,0.153953 -0.374465,0.215343 -0.584268,0.165039l-0.0349016 0.0349528c-0.023752,0.0237559 -0.0549646,0.0355709 -0.0861614,0.0355709z"/><path class="fil0" d="M2.2812 4.61381c-0.0189606,0 -0.0372087,-0.00767717 -0.0504724,-0.021437 -0.0144724,-0.0149803 -0.0215354,-0.035689 -0.0192638,-0.0563976l0.0304961 -0.278311c0.00174803,-0.0159567 0.0088937,-0.030815 0.0202559,-0.0421417l1.11333 -1.10742c0.0274646,-0.0272874 0.0718819,-0.0272835 0.0992165,0.000240157 0.0273228,0.0274055 0.0271969,0.0718661 -0.000267717,0.0992717l-1.09574 1.09 -0.018622 0.169791 0.159287 -0.011689 0.103413 -0.102925 0.00301969 -0.142024c0.000822835,-0.0387323 0.0329921,-0.0697874 0.071626,-0.0686929l0.0940197 0.00207087 0.00212205 -0.100244c0.000814961,-0.0381181 0.0320551,-0.0685709 0.0701181,-0.0685709 0.000484252,0 0.00096063,0 0.00144882,0l0.0939488 0.00182677 0.00212992 -0.1c0.000814961,-0.0387323 0.0330039,-0.0695472 0.0715669,-0.0686969l0.134382 0.00279921 0.45702 -0.454559c0.0274528,-0.0272835 0.0718701,-0.0271614 0.0992126,0.000366142 0.0273228,0.0274055 0.0271969,0.0718622 -0.000283465,0.0991457l-0.478122 0.475512c-0.0134961,0.0133976 -0.0319764,0.0208268 -0.0509055,0.0203425l-0.0940787 -0.00182677 -0.00212992 0.0999961c-0.000826772,0.0387323 -0.0333268,0.0695472 -0.0715709,0.0686969l-0.0939331 -0.00194882 -0.00212992 0.10024c-0.000818898,0.038248 -0.032063,0.0687008 -0.0701142,0.0687008 -0.000503937,-3.93701e-006 -0.00101181,0 -0.00151969,-0.000125984l-0.0940197 -0.00194882 -0.00212992 0.100118c-0.000389764,0.0181496 -0.00779528,0.0354488 -0.0206575,0.0482362l-0.14187 0.141291c-0.0118937,0.011815 -0.0276063,0.018878 -0.0443189,0.0202205l-0.269272 0.0198504c-0.00173228,0.00011811 -0.00346457,0.000244094 -0.00518504,0.000244094z"/></g></g><rect class="fil1" width="6.82666" height="6.82666"/><text x="0" y="21.82666" fill="#000000" font-size="5px" font-weight="bold" font-family="'Helvetica Neue', Helvetica, Arial-Unicode, Arial, Sans-serif">Created by Circlon Tech</text><text x="0" y="26.82666" fill="#000000" font-size="5px" font-weight="bold" font-family="'Helvetica Neue', Helvetica, Arial-Unicode, Arial, Sans-serif">from the Noun Project</text></svg>